<svg width="157" height="170" viewBox="0 0 157 170" fill="none" xmlns="http://www.w3.org/2000/svg">
<g id="Vector">
<path d="M35.7425 39.2588C18.9731 38.3563 20.641 22.6375 23.5711 14.8908C-1.27915 47.5633 -1.26472 78.8803 3.28556 86.1898C13.7439 62.7243 32.8876 58.9639 41.152 60.0167C60.6262 33.4827 82.7284 24.0166 90.0628 21.6596C108.32 15.7933 113.504 33.3924 76.7645 64.5293C81.2724 68.5004 96.5993 77.6158 97.7263 87.9948C63.4666 120.26 84.4284 134.7 55.1265 134.7C30.9641 134.881 16.3585 116.725 12.076 107.625C-5.77534 150.946 31.5353 166.288 52.4218 168.545C118.418 179.194 165.151 119.132 154.977 84.3847C147.314 58.2117 114.18 55.9554 97.7263 57.7604C133.79 37.2281 125.901 5.41431 118.913 3.8349C107.193 -6.09281 76.0135 11.5817 61.8884 21.6596L35.7425 39.2588Z" fill="#FDFDFD"/>
<path d="M65.2698 64.3037L53.3238 61.8217C54.3002 59.4901 59.8152 50.5403 78.5681 37.0025C97.321 23.4647 98.8537 30.008 87.8093 41.5151L65.2698 64.3037Z" fill="#FDFDFD"/>
</g>
</svg>
