<svg xmlns="http://www.w3.org/2000/svg" viewBox="0 0 24 24" width="24" height="24" fill="var(--color-icon-enabled, #2E3137)" style="display: inline-block; vertical-align: middle;"><path fill-rule="evenodd" clip-rule="evenodd" d="M17.868 4.561c.43.196.815.478 1.132.829a3.78 3.78 0 0 1 1.14 2.72A3.537 3.537 0 0 1 19 10.65L17.61 12a.75.75 0 1 1-1.06-1L18 9.56a1.998 1.998 0 0 0 .68-1.48A2.26 2.26 0 0 0 18 6.43a2 2 0 0 0-1.54-.68 2.26 2.26 0 0 0-1.65.68l-3.5 3.5a2 2 0 0 0-.68 1.48 2.262 2.262 0 0 0 .68 1.65.77.77 0 0 1 0 1.07.79.79 0 0 1-.53.22.77.77 0 0 1-.53-.22 3.8 3.8 0 0 1-1.12-2.75 3.54 3.54 0 0 1 1.14-2.54l3.48-3.48a3.76 3.76 0 0 1 2.75-1.11c.473.01.938.115 1.368.311ZM12.831 10.8a.75.75 0 0 1 .22-.53.742.742 0 0 1 1.06-.01A3.8 3.8 0 0 1 15.23 13a3.538 3.538 0 0 1-1.14 2.52L10.61 19a3.8 3.8 0 0 1-2.67 1.14h-.08A3.46 3.46 0 0 1 5.33 19a3.78 3.78 0 0 1-1.1-2.72 3.54 3.54 0 0 1 1.14-2.54l1.38-1.34a.75.75 0 0 1 1.06 0 .77.77 0 0 1 0 1.07l-1.4 1.4a2 2 0 0 0-.68 1.48A2.26 2.26 0 0 0 6.41 18a2.001 2.001 0 0 0 1.48.68A2.19 2.19 0 0 0 9.55 18l3.5-3.52a2.002 2.002 0 0 0 .68-1.48 2.26 2.26 0 0 0-.68-1.67.75.75 0 0 1-.22-.53Z"></path></svg>