<svg width="24" height="24" viewBox="0 0 24 24" fill="none" xmlns="http://www.w3.org/2000/svg">
<path d="M15.4142 5.00004H21.0082C21.556 5.00004 22 5.44467 22 6.00091V19.9992C22 20.552 21.5447 21.0001 21.0082 21.0001H2.9918C2.44405 21.0001 2 20.5554 2 19.9992V6.00091C2 5.44814 2.45531 5.00004 2.9918 5.00004H8.58579L6.05025 2.46451L7.46447 1.05029L11.4142 5.00004H12.5858L16.5355 1.05029L17.9497 2.46451L15.4142 5.00004ZM4 7.00004V19.0001H20V7.00004H4Z" fill="black"/>
<path d="M10 15.7318V10.2679C10 10.0061 10.288 9.84652 10.51 9.98528L14.8811 12.7172C15.09 12.8477 15.09 13.152 14.8811 13.2825L10.51 16.0144C10.288 16.1532 10 15.9936 10 15.7318Z" fill="black"/>
</svg>
